<?xml version="1.0" standalone="no"?>
<!DOCTYPE svg PUBLIC "-//W3C//DTD SVG 20010904//EN"
 "http://www.w3.org/TR/2001/REC-SVG-20010904/DTD/svg10.dtd">
<svg version="1.0" xmlns="http://www.w3.org/2000/svg"
 width="2000.000000pt" height="2000.000000pt" viewBox="0 0 2000.000000 2000.000000"
 preserveAspectRatio="xMidYMid meet">
<metadata>
Created by potrace 1.11, written by Peter Selinger 2001-2013
</metadata>
<g transform="translate(0.000000,2000.000000) scale(0.100000,-0.100000)"
fill="#000000" stroke="none">
<path d="M919 13614 c-9 -11 -13 -7152 -4 -7176 4 -11 208 -13 1088 -11 595 1
1090 2 1100 2 16 1 17 116 17 2263 0 2155 1 2260 18 2240 9 -11 24 -30 32 -42
8 -12 23 -31 32 -42 10 -11 15 -25 12 -29 -3 -5 -1 -9 4 -9 10 0 87 -100 150
-195 19 -27 37 -52 41 -55 3 -3 19 -23 34 -46 15 -22 36 -50 46 -61 10 -11 25
-31 32 -45 8 -14 24 -38 37 -54 12 -16 58 -78 102 -139 44 -60 88 -121 100
-135 11 -14 20 -29 20 -34 0 -5 8 -16 18 -25 11 -9 24 -27 31 -39 7 -13 22
-35 34 -49 12 -13 20 -27 19 -30 -2 -3 0 -9 5 -12 12 -8 94 -119 93 -126 0 -3
6 -13 14 -21 21 -20 94 -118 131 -174 17 -25 35 -50 40 -56 6 -6 17 -22 25
-34 8 -12 27 -36 42 -53 14 -17 24 -35 22 -39 -3 -4 -2 -8 3 -8 4 0 19 -17 33
-38 14 -20 33 -46 42 -56 10 -11 38 -49 63 -85 25 -36 61 -86 80 -111 18 -25
34 -48 34 -52 1 -5 9 -16 19 -26 9 -10 24 -29 32 -41 8 -13 22 -31 30 -42 8
-10 31 -41 50 -70 19 -28 48 -66 64 -85 15 -19 24 -34 20 -34 -5 0 -2 -6 6
-13 9 -7 27 -28 40 -47 13 -19 30 -41 37 -48 7 -7 13 -16 13 -20 0 -4 14 -22
30 -41 17 -18 30 -38 30 -42 0 -5 8 -18 18 -28 29 -32 42 -50 42 -56 0 -3 22
-34 48 -68 27 -34 51 -70 55 -79 3 -10 11 -18 17 -18 5 0 10 -7 10 -15 0 -8 4
-15 8 -15 5 0 13 -8 18 -19 5 -10 19 -32 31 -47 59 -75 123 -166 123 -174 0
-6 4 -10 10 -10 5 0 21 -20 36 -45 14 -25 29 -45 33 -45 3 0 17 -20 31 -45 13
-24 30 -47 37 -49 7 -3 13 -10 13 -16 0 -6 6 -17 13 -24 6 -8 19 -24 27 -36 8
-12 43 -60 78 -106 35 -47 60 -89 57 -94 -4 -6 -1 -9 5 -8 7 2 17 -6 23 -17 7
-10 24 -33 39 -50 16 -16 28 -36 28 -43 0 -7 7 -15 15 -18 8 -4 15 -12 15 -19
0 -6 10 -23 21 -36 12 -13 28 -34 36 -46 14 -21 16 -21 381 -21 202 0 372 -1
377 -2 6 -1 15 -1 20 0 6 1 155 2 333 2 l323 0 17 26 c9 15 24 34 32 43 8 9
33 43 55 74 22 32 47 65 56 74 8 9 26 33 38 54 12 20 26 37 30 37 3 0 17 20
31 45 14 25 28 45 31 45 4 0 18 19 32 43 14 23 33 52 44 64 45 52 52 63 47 63
-3 0 1 7 9 15 8 8 25 30 37 50 12 19 26 35 31 35 6 0 8 4 5 9 -4 5 -2 11 3 13
9 3 56 67 93 126 11 17 23 32 27 32 4 0 22 25 40 55 18 30 37 55 41 55 4 0 13
14 20 30 7 17 16 30 21 30 4 0 10 8 14 19 3 10 17 32 31 47 33 38 37 44 60 79
40 63 63 87 76 79 7 -5 8 -2 4 5 -8 12 37 88 60 103 6 4 17 21 24 38 7 16 16
30 20 30 3 0 22 23 40 52 19 29 40 59 47 68 8 8 32 40 54 70 22 30 45 54 50
52 6 -1 8 2 4 7 -3 6 2 19 12 29 10 11 29 39 43 62 14 23 32 50 40 60 8 10 23
28 32 39 10 11 29 39 43 61 14 22 30 40 37 40 6 0 9 3 5 6 -3 3 -2 11 3 18 33
40 61 77 90 121 19 28 39 55 46 60 6 6 18 22 25 36 14 26 51 77 79 108 8 9 32
41 52 71 21 30 51 73 67 95 17 22 43 58 58 80 15 22 31 42 34 45 13 11 79 113
79 122 0 5 5 6 10 3 6 -3 10 -2 10 3 0 10 57 98 80 124 26 29 37 44 63 84 13
21 36 53 51 69 42 47 45 52 39 59 -4 3 -1 6 5 6 6 0 18 12 26 28 8 15 29 43
45 62 17 19 34 43 37 53 3 9 10 17 15 17 6 0 7 5 4 10 -3 6 -2 10 2 10 5 0 22
20 37 45 16 25 32 45 36 45 3 0 16 17 27 38 12 20 31 47 43 60 11 12 18 22 15
22 -3 0 3 8 13 19 9 10 33 42 52 70 19 29 42 60 50 70 8 9 28 37 45 61 31 48
42 61 75 98 11 12 18 22 15 22 -3 0 3 10 15 22 11 12 20 25 20 29 0 4 16 27
35 51 19 23 39 48 44 54 4 5 14 20 20 33 7 12 20 31 29 41 9 10 28 34 42 54
38 56 138 189 154 206 8 8 20 27 27 43 7 15 16 27 20 27 5 0 16 14 25 32 9 17
20 36 25 42 49 59 60 73 65 89 3 9 9 17 14 17 5 0 16 12 24 28 8 15 23 36 33
47 10 11 28 34 41 51 l22 32 2790 0 c1534 0 2790 -3 2790 -7 0 -3 14 -21 30
-40 17 -18 30 -37 30 -41 0 -4 12 -21 28 -38 15 -16 34 -40 42 -52 26 -39 143
-194 157 -208 7 -7 13 -16 13 -20 0 -4 13 -21 28 -38 15 -18 34 -42 42 -54 8
-12 27 -36 42 -54 15 -17 28 -34 28 -37 0 -3 8 -15 18 -27 9 -11 24 -30 32
-42 8 -12 25 -33 37 -47 l21 -26 -21 -29 c-11 -15 -25 -28 -29 -28 -5 0 -7 -4
-4 -8 3 -5 -10 -25 -29 -46 -18 -21 -39 -51 -45 -67 -7 -15 -21 -31 -31 -34
-11 -4 -17 -11 -14 -16 4 -5 1 -9 -5 -9 -6 0 -9 -4 -6 -8 2 -4 -4 -19 -15 -32
-11 -14 -36 -49 -56 -78 -20 -30 -42 -56 -50 -59 -7 -3 -11 -9 -8 -13 3 -4 -2
-13 -10 -20 -8 -7 -15 -18 -15 -26 0 -7 -6 -17 -13 -21 -7 -4 -23 -25 -37 -45
-14 -21 -31 -38 -38 -38 -7 0 -11 -4 -8 -8 2 -4 -20 -41 -49 -82 -30 -41 -60
-84 -68 -96 l-15 -20 -1844 0 c-1013 1 -1848 4 -1855 9 -6 4 -14 4 -16 0 -3
-5 -163 -8 -356 -8 -193 0 -351 -3 -351 -7 0 -6 173 -247 217 -303 4 -5 22
-30 38 -55 32 -47 35 -52 63 -87 9 -11 24 -31 32 -43 17 -24 225 -309 237
-325 4 -5 22 -30 38 -55 32 -47 35 -52 63 -87 9 -11 24 -31 32 -43 16 -23 254
-348 267 -365 4 -5 22 -30 38 -55 32 -47 35 -52 63 -87 9 -11 24 -31 32 -43 8
-12 31 -43 50 -69 l35 -47 1600 1 1600 0 56 -55 c31 -30 67 -65 80 -77 59 -54
124 -126 122 -134 -2 -4 5 -5 14 -2 11 4 14 3 9 -5 -4 -7 -3 -12 1 -12 5 0 89
-78 186 -174 l178 -173 0 -861 c0 -631 3 -863 11 -868 6 -4 453 -8 992 -8 566
-1 987 -5 995 -10 9 -6 12 -5 8 1 -4 7 26 11 86 12 50 1 99 2 107 3 13 1 15
121 13 1025 l-3 1023 -519 519 c-286 286 -517 522 -513 525 3 3 -1 6 -9 6 -15
0 -59 47 -59 63 0 6 -3 8 -6 4 -3 -3 -34 22 -69 56 -69 68 -69 68 -18 133 13
16 46 61 75 99 29 39 55 72 58 75 3 3 18 23 35 45 16 22 33 45 37 50 5 6 30
40 56 76 27 37 56 74 65 83 8 9 19 25 22 36 3 11 10 20 15 20 5 0 11 8 14 18
4 10 14 27 24 38 10 10 28 35 42 54 13 19 29 38 36 42 6 4 17 21 24 38 7 16
16 30 21 30 5 0 15 12 23 28 8 15 28 43 45 62 17 19 35 40 40 46 5 7 7 15 4
18 -4 3 -1 6 5 6 7 0 24 19 38 43 15 23 31 45 36 48 5 3 23 29 42 57 18 28 35
49 38 47 3 -3 13 13 23 35 10 22 26 42 37 45 10 4 16 10 14 14 -3 4 6 19 19
33 13 14 21 29 18 32 -4 3 -1 6 5 6 6 0 18 12 26 28 8 15 26 40 40 56 14 16
26 32 26 36 0 3 8 15 18 26 9 10 30 37 47 59 40 54 47 63 68 86 9 10 14 19 10
19 -5 0 -3 4 2 8 6 4 18 16 28 28 19 23 13 56 -15 85 -7 8 -30 37 -50 64 -21
28 -42 56 -48 63 -6 6 -8 12 -5 12 3 0 -4 11 -17 25 -29 31 -36 40 -73 95 -16
25 -34 50 -40 56 -5 6 -17 22 -25 34 -8 12 -22 30 -30 40 -8 10 -22 28 -30 40
-8 12 -57 78 -108 146 -50 69 -92 127 -92 130 0 3 -13 19 -30 36 -16 16 -30
34 -30 39 0 6 -11 20 -23 32 -13 12 -30 33 -37 46 -7 14 -17 30 -21 35 -31 38
-78 100 -99 131 -14 19 -35 48 -47 63 -13 15 -23 31 -23 35 0 4 -11 19 -25 33
-14 14 -25 29 -25 33 0 5 -12 23 -27 39 -16 17 -44 54 -63 82 -19 28 -42 59
-50 69 -8 11 -22 29 -30 41 -8 12 -22 30 -30 40 -8 10 -22 28 -30 40 -16 23
-264 358 -278 375 -4 6 -19 26 -32 45 -14 19 -27 37 -30 40 -3 3 -14 18 -23
33 -10 16 -25 36 -33 45 -45 52 -74 91 -74 97 0 4 -10 17 -23 29 l-23 21
-3879 -2 c-2134 -1 -3887 -3 -3896 -4 -9 -1 -16 -8 -16 -15 0 -7 -14 -32 -32
-56 -84 -113 -167 -227 -181 -247 -8 -13 -26 -38 -40 -57 -14 -18 -43 -58 -65
-89 -22 -30 -51 -70 -65 -89 -14 -19 -32 -44 -40 -56 -13 -20 -35 -49 -86
-115 -8 -11 -29 -42 -47 -69 -17 -28 -44 -64 -59 -80 -51 -57 -56 -64 -50 -70
3 -3 0 -6 -6 -6 -6 0 -14 -9 -17 -20 -4 -11 -16 -31 -28 -44 -22 -24 -33 -39
-65 -87 -60 -92 -74 -111 -87 -116 -8 -3 -12 -9 -9 -14 3 -5 0 -9 -5 -9 -6 0
-11 -6 -11 -12 0 -7 -9 -24 -20 -38 -11 -14 -43 -56 -71 -95 -27 -38 -59 -81
-69 -95 -10 -14 -30 -41 -44 -60 -45 -62 -97 -134 -127 -175 -16 -22 -46 -65
-66 -95 -21 -30 -40 -57 -43 -60 -10 -10 -65 -85 -95 -130 -17 -25 -35 -48
-41 -52 -6 -4 -17 -21 -24 -38 -7 -16 -16 -30 -20 -30 -3 0 -22 -23 -40 -52
-19 -29 -41 -59 -50 -68 -8 -9 -22 -27 -30 -39 -22 -34 -67 -94 -84 -111 -8
-8 -20 -27 -27 -42 -7 -16 -16 -28 -20 -28 -4 0 -10 -9 -14 -20 -3 -11 -20
-33 -36 -50 -17 -16 -27 -30 -22 -30 4 0 3 -4 -3 -8 -6 -4 -35 -42 -64 -84
-29 -43 -57 -78 -61 -78 -5 0 -8 -3 -7 -8 4 -11 -101 -152 -113 -152 -5 0 -7
-4 -4 -10 3 -5 1 -10 -4 -10 -6 0 -11 -6 -11 -12 0 -7 -9 -24 -20 -38 -30 -37
-147 -199 -176 -243 -13 -21 -32 -46 -42 -56 -9 -10 -37 -49 -62 -86 -25 -37
-52 -74 -60 -83 -9 -10 -29 -37 -45 -62 -30 -45 -41 -60 -83 -108 -12 -15 -25
-35 -28 -44 -3 -10 -9 -18 -13 -18 -5 0 -14 -13 -21 -30 -7 -16 -16 -30 -19
-30 -4 0 -26 -28 -49 -63 -23 -34 -51 -72 -62 -85 -11 -12 -18 -22 -15 -22 3
0 -3 -9 -12 -19 -29 -31 -40 -46 -52 -70 -7 -12 -20 -31 -29 -41 -25 -27 -49
-59 -85 -115 -17 -27 -42 -59 -54 -71 -13 -12 -20 -23 -18 -26 3 -3 -4 -13
-14 -22 -19 -17 -20 -16 -48 26 -15 23 -33 47 -40 51 -7 4 -13 12 -13 18 0 5
-35 56 -77 112 -42 56 -89 120 -105 142 -16 22 -51 70 -78 107 -28 37 -50 69
-50 72 0 3 -13 20 -30 38 -16 18 -30 36 -30 40 0 5 -29 45 -63 91 -35 45 -69
92 -75 104 -7 12 -18 27 -25 35 -7 7 -24 29 -37 48 -13 19 -28 40 -32 45 -33
42 -78 105 -78 110 0 3 -13 20 -30 38 -16 18 -30 35 -30 40 0 4 -7 15 -16 25
-8 9 -55 73 -104 142 -49 69 -95 132 -102 140 -7 9 -24 32 -38 53 -14 20 -28
37 -32 37 -5 0 -8 4 -8 10 0 9 -51 83 -83 119 -6 8 -14 20 -17 26 -3 7 -15 25
-28 41 -73 95 -131 174 -127 174 4 0 -8 15 -24 33 -17 17 -31 35 -31 39 0 4
-6 13 -13 20 -12 12 -120 161 -142 196 -5 8 -15 23 -22 31 -27 36 -179 243
-188 258 -5 9 -22 30 -38 47 -15 17 -30 39 -33 48 -3 10 -9 18 -14 18 -4 0
-11 11 -14 25 -4 14 -10 25 -15 25 -5 0 -20 17 -32 37 -13 21 -30 45 -39 54
-30 35 -40 48 -40 58 0 5 -7 11 -15 15 -8 3 -15 11 -15 18 0 7 -14 28 -31 47
-16 19 -27 41 -24 48 2 8 1 12 -4 9 -5 -4 -35 30 -68 74 -32 44 -79 110 -105
145 -27 35 -48 69 -48 75 0 5 -5 10 -10 10 -6 0 -14 8 -17 18 -4 9 -20 31 -35
47 -15 17 -28 33 -28 37 0 5 -26 43 -58 85 -124 165 -152 203 -152 209 0 8
-58 83 -82 107 -10 10 -18 24 -18 31 0 8 -7 16 -15 20 -8 3 -15 12 -15 21 0 8
-5 15 -10 15 -6 0 -15 11 -20 25 -5 14 -13 25 -18 25 -5 0 -14 10 -20 23 -5
12 -19 33 -30 47 -12 14 -53 70 -93 125 -40 55 -91 125 -113 155 l-41 55
-1228 0 c-865 0 -1231 -3 -1238 -11z"/>
</g>
</svg>
